<?xml version="1.0" encoding="UTF-8" standalone="no"?>
<svg
   id="svg6974"
   viewBox="0 0 345 345"
   version="1.1"
   sodipodi:docname="logo.svg"
   width="345"
   height="345"
   inkscape:version="1.3.2 (091e20ef0f, 2023-11-25)"
   xmlns:inkscape="http://www.inkscape.org/namespaces/inkscape"
   xmlns:sodipodi="http://sodipodi.sourceforge.net/DTD/sodipodi-0.dtd"
   xmlns:xlink="http://www.w3.org/1999/xlink"
   xmlns="http://www.w3.org/2000/svg"
   xmlns:svg="http://www.w3.org/2000/svg"
   xmlns:rdf="http://www.w3.org/1999/02/22-rdf-syntax-ns#"
   xmlns:cc="http://creativecommons.org/ns#"
   xmlns:dc="http://purl.org/dc/elements/1.1/">
  <sodipodi:namedview
     id="namedview1"
     pagecolor="#505050"
     bordercolor="#ffffff"
     borderopacity="1"
     inkscape:showpageshadow="0"
     inkscape:pageopacity="0"
     inkscape:pagecheckerboard="1"
     inkscape:deskcolor="#505050"
     inkscape:zoom="0.49127477"
     inkscape:cx="-126.20229"
     inkscape:cy="17.301927"
     inkscape:window-width="2048"
     inkscape:window-height="1115"
     inkscape:window-x="0"
     inkscape:window-y="0"
     inkscape:window-maximized="1"
     inkscape:current-layer="svg6974" />
  <defs
     id="defs6976">
    <linearGradient
       id="linearGradient7562">
      <stop
         id="stop7564"
         stop-color="#fff"
         offset="0" />
      <stop
         id="stop7570"
         stop-color="#999"
         offset=".37223" />
      <stop
         id="stop7566"
         stop-color="#333"
         offset="1" />
    </linearGradient>
    <filter
       id="filter7580"
       color-interpolation-filters="sRGB"
       x="-0.083318048"
       y="-0.042725168"
       width="1.1666361"
       height="1.0854503">
      <feGaussianBlur
         id="feGaussianBlur7582"
         stdDeviation="0.31746016" />
    </filter>
    <filter
       id="filter7717"
       height="1.0817094"
       width="1.2258269"
       y="-0.040854691"
       x="-0.11291347"
       color-interpolation-filters="sRGB">
      <feGaussianBlur
         id="feGaussianBlur7719"
         stdDeviation="0.61494821" />
    </filter>
    <filter
       id="filter7607"
       color-interpolation-filters="sRGB"
       x="-0.062366095"
       y="-0.0509803"
       width="1.1247322"
       height="1.1019606">
      <feGaussianBlur
         id="feGaussianBlur7609"
         stdDeviation="0.4328259" />
    </filter>
    <filter
       id="filter7633"
       color-interpolation-filters="sRGB"
       x="-0.19920928"
       y="-0.0649267"
       width="1.3984186"
       height="1.1298534">
      <feGaussianBlur
         id="feGaussianBlur7635"
         stdDeviation="0.22826063" />
    </filter>
    <filter
       id="filter6909"
       color-interpolation-filters="sRGB"
       x="-0.019994377"
       y="-0.030012378"
       width="1.0399888"
       height="1.0600248">
      <feGaussianBlur
         id="feGaussianBlur6911"
         stdDeviation="0.4940694" />
    </filter>
    <linearGradient
       id="linearGradient6913">
      <stop
         id="stop6915"
         stop-color="#e6c487"
         offset="0" />
      <stop
         id="stop6921"
         stop-color="#ffffea"
         offset=".5" />
      <stop
         id="stop6917"
         stop-color="#e6c487"
         offset="1" />
    </linearGradient>
    <filter
       id="filter6895"
       color-interpolation-filters="sRGB"
       x="-0.025987714"
       y="-0.0078011061"
       width="1.0519754"
       height="1.0156022">
      <feGaussianBlur
         id="feGaussianBlur6897"
         stdDeviation="0.10929675" />
    </filter>
    <filter
       id="filter6885"
       color-interpolation-filters="sRGB"
       x="-0.028443466"
       y="-0.007604085"
       width="1.0568869"
       height="1.0152082">
      <feGaussianBlur
         id="feGaussianBlur6887"
         stdDeviation="0.20287065" />
    </filter>
    <linearGradient
       id="linearGradient7624">
      <stop
         id="stop7626"
         stop-color="#aa895c"
         offset="0" />
      <stop
         id="stop7628"
         stop-color="#dbb77e"
         offset="1" />
    </linearGradient>
    <filter
       id="filter6867"
       color-interpolation-filters="sRGB"
       x="-0.028002871"
       y="-0.0076361886"
       width="1.0560057"
       height="1.0152724">
      <feGaussianBlur
         id="feGaussianBlur6869"
         stdDeviation="0.3153905" />
    </filter>
    <filter
       id="filter7309"
       height="1.06194"
       width="1.211287"
       y="-0.030969999"
       x="-0.1056435"
       color-interpolation-filters="sRGB">
      <feGaussianBlur
         id="feGaussianBlur7311"
         stdDeviation="1.2670265" />
    </filter>
    <linearGradient
       id="linearGradient6942">
      <stop
         id="stop6944"
         stop-color="#fff"
         offset="0" />
      <stop
         id="stop6946"
         stop-color="#fff"
         stop-opacity="0"
         offset="1" />
    </linearGradient>
    <filter
       id="filter7502"
       height="1.2169864"
       width="1.6403969"
       y="-0.10849321"
       x="-0.32019846"
       color-interpolation-filters="sRGB">
      <feGaussianBlur
         id="feGaussianBlur7504"
         stdDeviation="1.0158392" />
    </filter>
    <filter
       id="filter6962"
       color-interpolation-filters="sRGB"
       x="-0.097837758"
       y="-0.022123045"
       width="1.1956755"
       height="1.0442461">
      <feGaussianBlur
         id="feGaussianBlur6964"
         stdDeviation="1.9262768" />
    </filter>
    <filter
       id="filter8024"
       height="1.6294566"
       width="1.1303661"
       y="-0.3147283"
       x="-0.065183059"
       color-interpolation-filters="sRGB">
      <feGaussianBlur
         id="feGaussianBlur8026"
         stdDeviation="7.045311" />
    </filter>
    <filter
       id="filter9208"
       color-interpolation-filters="sRGB"
       x="-0.039578505"
       y="-0.034510473"
       width="1.079157"
       height="1.0690209">
      <feGaussianBlur
         id="feGaussianBlur9210"
         stdDeviation="4.1424035" />
    </filter>
    <linearGradient
       id="linearGradient7839"
       x1="888.79999"
       gradientUnits="userSpaceOnUse"
       y1="-58.102001"
       gradientTransform="translate(-311.76,336.18)"
       x2="925.39001"
       y2="221.67">
      <stop
         id="stop7998"
         stop-color="#4d4d4d"
         offset="0" />
      <stop
         id="stop8000"
         stop-color="#4d4d4d"
         stop-opacity="0"
         offset="1" />
    </linearGradient>
    <linearGradient
       id="linearGradient7841"
       x1="1187"
       gradientUnits="userSpaceOnUse"
       x2="1177"
       y1="-211.25999"
       y2="-187.89999">
      <stop
         id="stop7520"
         stop-color="#151515"
         offset="0" />
      <stop
         id="stop7522"
         offset="1" />
    </linearGradient>
    <linearGradient
       id="linearGradient7843"
       x1="753.76001"
       gradientUnits="userSpaceOnUse"
       y1="-223.27"
       gradientTransform="matrix(1.0535,-0.079525,0.079525,1.0535,-707.64,617.55)"
       x2="843.28998"
       y2="-229.14999">
      <stop
         id="stop7289"
         stop-color="#989783"
         offset="0" />
      <stop
         id="stop7291"
         stop-color="#6f6f6c"
         offset="1" />
    </linearGradient>
    <linearGradient
       id="linearGradient7845"
       x1="772.09003"
       gradientUnits="userSpaceOnUse"
       y1="-185.14"
       gradientTransform="matrix(1.0535,-0.079525,0.079525,1.0535,-707.64,617.55)"
       x2="785.82001"
       y2="-188.89999">
      <stop
         id="stop7181"
         stop-color="#71736a"
         offset="0" />
      <stop
         id="stop7183"
         stop-color="#4d4d4d"
         offset="1" />
    </linearGradient>
    <linearGradient
       id="linearGradient7847"
       x1="933.16998"
       xlink:href="#linearGradient6942"
       gradientUnits="userSpaceOnUse"
       y1="-216.64"
       gradientTransform="translate(-479.72,235.66)"
       x2="1007.2"
       y2="125.79" />
    <linearGradient
       id="linearGradient7849"
       x1="933.16998"
       xlink:href="#linearGradient6942"
       gradientUnits="userSpaceOnUse"
       y1="-216.64"
       gradientTransform="translate(-100.43,-83.978)"
       x2="1007.2"
       y2="125.79" />
    <linearGradient
       id="linearGradient7851"
       x1="783.69"
       gradientUnits="userSpaceOnUse"
       y1="-142.58"
       gradientTransform="matrix(1.0535,-0.079525,0.079525,1.0535,-707.64,617.55)"
       x2="832.39001"
       y2="-82.473999">
      <stop
         id="stop7032"
         stop-color="#a0a193"
         offset="0" />
      <stop
         id="stop7034"
         stop-color="#a0938d"
         offset="1" />
    </linearGradient>
    <linearGradient
       id="linearGradient7853"
       x1="959.85999"
       gradientUnits="userSpaceOnUse"
       y1="-95.763"
       gradientTransform="matrix(1.0535,-0.079525,0.079525,1.0535,-707.64,617.55)"
       x2="798.38"
       y2="-55.411999">
      <stop
         id="stop7114"
         stop-color="#5a564a"
         offset="0" />
      <stop
         id="stop7116"
         stop-color="#784421"
         offset="1" />
    </linearGradient>
    <radialGradient
       id="radialGradient7855"
       gradientUnits="userSpaceOnUse"
       cy="-110.3"
       cx="782.40997"
       gradientTransform="matrix(1.6156,0.89574,-1.0362,1.8689,-1268,-62.52)"
       r="43.109001">
      <stop
         id="stop7132"
         stop-color="#fff"
         offset="0" />
      <stop
         id="stop7135"
         stop-color="#fff"
         stop-opacity="0"
         offset="1" />
    </radialGradient>
    <linearGradient
       id="linearGradient7857"
       x1="1394.6"
       xlink:href="#linearGradient7624"
       gradientUnits="userSpaceOnUse"
       y1="402.32999"
       gradientTransform="matrix(1.0535,-0.079525,0.079525,1.0535,-1202.6,126.2)"
       x2="1283.9"
       y2="320.85999" />
    <radialGradient
       id="radialGradient7859"
       xlink:href="#linearGradient7624"
       gradientUnits="userSpaceOnUse"
       cy="365.51999"
       cx="1225"
       gradientTransform="matrix(1.9982,0.97636,-0.65627,1.3431,-2091.4,-1278.5)"
       r="43.488998" />
    <radialGradient
       id="radialGradient7861"
       xlink:href="#linearGradient7624"
       gradientUnits="userSpaceOnUse"
       cy="297.60999"
       cx="1223.1"
       gradientTransform="matrix(2.0007,0.73471,-0.58182,1.5843,-2164.6,-1031.5)"
       r="29.603001" />
    <linearGradient
       id="linearGradient7863"
       x1="1287.6"
       xlink:href="#linearGradient6913"
       gradientUnits="userSpaceOnUse"
       y1="332.57001"
       gradientTransform="translate(-727.01,-156.87)"
       x2="1310.8"
       y2="418.92001" />
    <linearGradient
       id="linearGradient7865"
       x1="1331.1"
       xlink:href="#linearGradient7624"
       gradientUnits="userSpaceOnUse"
       y1="317.69"
       gradientTransform="matrix(1.0535,-0.079525,0.079525,1.0535,-1202.6,126.2)"
       x2="1263.7"
       y2="262.82001" />
    <radialGradient
       id="radialGradient7867"
       xlink:href="#linearGradient7624"
       gradientUnits="userSpaceOnUse"
       cy="254.83"
       cx="1224.3"
       gradientTransform="matrix(1.7195,0.19294,-0.1908,1.7004,-1949.2,-373.12)"
       r="17.662001" />
    <linearGradient
       id="linearGradient7869"
       x1="1306.1"
       xlink:href="#linearGradient7624"
       gradientUnits="userSpaceOnUse"
       y1="267.67001"
       gradientTransform="matrix(1.0535,-0.079525,0.079525,1.0535,-1202.6,126.2)"
       x2="1258.1"
       y2="235.39" />
    <linearGradient
       id="linearGradient7871"
       x1="1262.8"
       xlink:href="#linearGradient6913"
       gradientUnits="userSpaceOnUse"
       y1="288.51001"
       gradientTransform="translate(-727.01,-156.87)"
       x2="1280.9"
       y2="288.51001" />
    <linearGradient
       id="linearGradient7873"
       x1="816.5"
       xlink:href="#linearGradient6913"
       gradientUnits="userSpaceOnUse"
       y1="-254.11"
       gradientTransform="translate(-294.83,342.18)"
       x2="827.12"
       y2="-254.11" />
    <linearGradient
       id="linearGradient7875"
       x1="844.83002"
       gradientUnits="userSpaceOnUse"
       y1="-82.238998"
       gradientTransform="matrix(1.0535,-0.079525,0.079525,1.0535,-707.64,617.55)"
       x2="851.94"
       y2="-41.349998">
      <stop
         id="stop7157"
         stop-color="#9c9d9f"
         offset="0" />
      <stop
         id="stop7159"
         stop-color="#8a9d9f"
         offset="1" />
    </linearGradient>
    <linearGradient
       id="linearGradient7877"
       x1="844.83002"
       gradientUnits="userSpaceOnUse"
       y1="-82.238998"
       gradientTransform="matrix(1.0535,-0.079525,0.079525,1.0535,-707.64,617.55)"
       x2="851.94"
       y2="-41.349998">
      <stop
         id="stop7149"
         stop-color="#fff"
         offset="0" />
      <stop
         id="stop7151"
         stop-color="#969799"
         stop-opacity="0"
         offset="1" />
    </linearGradient>
    <linearGradient
       id="linearGradient7881"
       x1="1185.4"
       xlink:href="#linearGradient7562"
       gradientUnits="userSpaceOnUse"
       x2="1183.9"
       y1="-183.13"
       y2="-218.05" />
    <linearGradient
       id="linearGradient7883"
       x1="1185.4"
       xlink:href="#linearGradient7562"
       gradientUnits="userSpaceOnUse"
       x2="1162.4"
       y1="-183.13"
       y2="-219.56" />
    <radialGradient
       id="radialGradient7885"
       gradientUnits="userSpaceOnUse"
       cy="-203.41"
       cx="1022.6"
       gradientTransform="matrix(1.5351,0,0,2.3522,-547.18,275.04)"
       r="6.5353999">
      <stop
         id="stop7684"
         stop-color="#333"
         offset="0" />
      <stop
         id="stop7686"
         stop-color="#333"
         stop-opacity="0"
         offset="1" />
    </radialGradient>
    <linearGradient
       id="linearGradient7887"
       y2="-181.92999"
       gradientUnits="userSpaceOnUse"
       y1="-197.53"
       x2="1023.3"
       x1="1010.2">
      <stop
         id="stop7669"
         stop-color="#5e6262"
         stop-opacity=".33166"
         offset="0" />
      <stop
         id="stop7695"
         stop-color="#484a4a"
         offset=".5" />
      <stop
         id="stop7671"
         stop-color="#333"
         offset="1" />
    </linearGradient>
    <radialGradient
       id="radialGradient7889"
       gradientUnits="userSpaceOnUse"
       cy="-135.16"
       cx="1027.7"
       gradientTransform="matrix(1,0,0,1.7538,0,101.88)"
       r="4.5423999">
      <stop
         id="stop7640"
         offset="0" />
      <stop
         id="stop7642"
         stop-color="#333"
         offset="1" />
    </radialGradient>
    <linearGradient
       id="linearGradient7891"
       y2="-135.16"
       gradientUnits="userSpaceOnUse"
       y1="-135.16"
       x2="1032"
       x1="1023.4">
      <stop
         id="stop7661"
         stop-color="#666"
         offset="0" />
      <stop
         id="stop7663"
         stop-color="#999"
         offset="1" />
    </linearGradient>
    <linearGradient
       inkscape:collect="always"
       xlink:href="#linearGradient7841"
       id="linearGradient1"
       gradientUnits="userSpaceOnUse"
       x1="1187"
       y1="-211.25999"
       x2="1177"
       y2="-187.89999" />
    <linearGradient
       inkscape:collect="always"
       xlink:href="#linearGradient7841"
       id="linearGradient2"
       gradientUnits="userSpaceOnUse"
       x1="1187"
       y1="-211.25999"
       x2="1177"
       y2="-187.89999" />
  </defs>
  <g
     id="layer1"
     transform="translate(16.324232,-693.96712)">
    <g
       id="g7797"
       transform="translate(-3.5061,492.77)">
      <path
         id="path8031"
         d="m 116.18,467.58 -0.81651,10.541 121.11,-18.816 1.497,-12.205 z"
         fill="#333333" />
      <g
         id="g8033"
         transform="matrix(1.0535,-0.079525,0.079525,1.0535,-866.98,557.03)">
        <path
           id="path8035"
           fill="#1f1f1f"
           d="m 1056.1,-66.906 c -5.8476,0.35622 -9.4965,0.47149 -15.649,1.883 -10.583,1.0614 -16.736,19.635 -14.696,40.976 2.04,21.342 12.261,37.786 22.844,36.725 7.9266,-0.81106 9.1396,-1.3425 15.055,-1.8431 10.584,-1.0614 17.508,-19.239 15.468,-40.581 -2.0399,-21.342 -12.439,-38.222 -23.023,-37.16 z" />
        <path
           id="path8037"
           transform="matrix(1.7809,-0.1786,0.17603,1.8416,-1023.4,562.71)"
           fill="url(#linearGradient7841)"
           d="m 1191.2,-204.98 c 0,11.588 -4.8176,20.983 -10.76,20.983 -5.9428,0 -10.76,-9.3942 -10.76,-20.983 0,-11.588 4.8175,-20.983 10.76,-20.983 5.9427,0 10.76,9.3942 10.76,20.983 z"
           style="fill:url(#linearGradient1)" />
      </g>
      <path
         id="path8039"
         fill="url(#linearGradient7843)"
         d="m 83.97,315.79 -2.7457,6.7996 83.776,-7.7576 -2.891,-4.6641 z"
         style="fill:url(#linearGradient7843)" />
      <path
         id="path8041"
         fill="#9e0c0c"
         d="m 21.733,230.3 17.707,-3.9683 c 0.88275,-0.19739 1.8198,0.34967 2.0976,1.2104 l 2.0111,6.2312 c 0.27781,0.86078 -0.21042,1.7069 -1.0947,1.8971 l -20.297,4.3654 c -0.88429,0.19019 -2.0112,-0.3101 -2.0976,-1.2105 0,0 -1.0855,-1.9028 -1.1984,-3.0003 -0.11283,-1.0974 0.59001,-3.3368 0.59001,-3.3368 0.17626,-0.99681 1.3993,-1.9904 2.2819,-2.1882 z" />
      <path
         id="path8043"
         transform="matrix(0.80517,-0.060781,0.079525,1.0535,-458.96,569.35)"
         fill="#9e0c0c"
         d="m 658.91,-284.1 c 0,3.992 -3.0659,7.2282 -6.8478,7.2282 -3.7819,0 -6.8478,-3.2362 -6.8478,-7.2282 0,-3.992 3.0659,-7.2282 6.8478,-7.2282 3.782,0 6.8478,3.2362 6.8478,7.2282 z" />
      <path
         id="path8045"
         style="color:#000000;text-indent:0;text-transform:none;fill:url(#linearGradient7845)"
         fill="url(#linearGradient7845)"
         d="m 48.499,224.04 c -4.8147,0.805 -6.1197,1.769 -6.1197,1.769 0,0 -1.4975,2.1729 -0.53072,4.9468 0.9668,2.7739 2.5354,4.1234 2.5354,4.1234 0,0 2.9232,-1.5999 5.5736,-2.0431 1.3251,-0.22155 2.3804,-0.10924 2.856,0.11549 0.47561,0.22477 0.87139,0.37015 1.3188,2.1187 0.84021,3.2834 5.4476,19.078 12.132,41.86 6.6848,22.783 15.309,52.154 23.873,81.168 17.128,58.028 33.919,114.68 33.919,114.68 l 8.5495,-2.5326 c 0,0 -16.759,-56.656 -33.886,-114.68 -8.5634,-29.012 -17.222,-58.358 -23.904,-81.133 -6.6823,-22.774 -11.527,-39.417 -12.077,-41.567 -0.94275,-3.6846 -3.2839,-6.6023 -6.129,-7.9469 -2.8451,-1.3446 -5.7043,-1.28 -8.1116,-0.87756 z" />
      <path
         id="path8047"
         filter="url(#filter6962)"
         transform="matrix(1.0535,-0.079525,0.079525,1.0535,-424.25,233.63)"
         fill="url(#linearGradient7847)"
         d="m 454.64,32.476 c -1.3206,0.22367 -0.028,4.9951 0.3885,4.0095 l 43.222,191.42 3.0625,13.531 -0.875,-4.1875 -42.912,-201.86 c 0,0 -1.5653,-3.1353 -2.8859,-2.9116 z"
         style="fill:url(#linearGradient7847)" />
      <path
         id="path8049"
         transform="matrix(0.7536,-0.30086,0.3804,1.0472,-249.72,739.46)"
         fill="#9e0c0c"
         d="m 658.91,-284.1 c 0,3.992 -3.0659,7.2282 -6.8478,7.2282 -3.7819,0 -6.8478,-3.2362 -6.8478,-7.2282 0,-3.992 3.0659,-7.2282 6.8478,-7.2282 3.782,0 6.8478,3.2362 6.8478,7.2282 z" />
      <path
         id="path8051"
         style="color:#000000;text-indent:0;text-transform:none"
         fill="#71736a"
         d="m 140.81,239.18 c -0.65097,0.0417 -1.3026,0.11009 -1.9041,0.21409 -4.8127,0.83147 -7.4655,2.6252 -7.4655,2.6252 0,0 -0.95461,2.4137 0.3811,5.4148 1.3356,3.001 3.0172,3.4202 3.0172,3.4202 0,0 2.9169,-1.6815 5.5662,-2.1392 1.3246,-0.22885 2.3808,-0.10535 2.8575,0.13475 0.47679,0.24008 0.87326,0.39578 1.3288,2.2494 0.52725,2.1458 2.8579,10.582 5.8911,21.439 l 9.0861,-0.68673 c -3.3843,-12.102 -6.0118,-21.565 -6.3772,-23.051 -0.95978,-3.9059 -3.3149,-7.0058 -6.1672,-8.442 -2.139,-1.0772 -4.261,-1.3025 -6.2141,-1.1787 z" />
      <path
         id="path8053"
         filter="url(#filter7502)"
         transform="matrix(1.0535,-0.07962,0.084329,1.1159,-706.3,634.07)"
         fill="url(#linearGradient7849)"
         d="m 834.18,-287.18 c -0.084,-0.0107 -0.1675,0.0173 -0.25,0.0312 -1.3206,0.22367 -0.042,4.9856 0.375,4 l 4.1563,18.438 h 2.5 l -4.1563,-19.531 c 0,0 -1.3649,-2.7773 -2.625,-2.9375 z"
         style="fill:url(#linearGradient7849)" />
      <path
         id="path8055"
         fill="url(#linearGradient7851)"
         d="m 128.42,495.25 69.383,-28.16 -5.4708,-90.702 -74.181,10.437 -13.354,25.998 z"
         style="fill:url(#linearGradient7851)" />
      <path
         id="path8057"
         d="m 175.52,476.79 104.58,-26.705 20.415,-8.9512 -93.348,9.3267 z"
         fill="url(#linearGradient7853)"
         style="fill:url(#linearGradient7853)" />
      <path
         id="path8059"
         stroke="url(#radialGradient7855)"
         stroke-width="1.0565"
         fill="none"
         d="m 128.42,495.25 69.383,-28.16 -5.4708,-90.702 -74.181,10.437 -13.354,25.998 z"
         style="stroke:url(#radialGradient7855)" />
      <path
         id="path8061"
         fill="url(#linearGradient7857)"
         d="m 176.6,357.25 36.277,103.33 87.498,-19.194 -32.661,-85.317 z"
         style="fill:url(#linearGradient7857)" />
      <path
         id="path8063"
         filter="url(#filter7309)"
         transform="matrix(1.0535,-0.079525,0.079525,1.0535,-424.25,233.63)"
         fill="#333333"
         d="m 515.96,281.92 10.222,-2.6901 -17.755,-80.164 7.5322,-2.1521 -3.4971,-12.912 -9.1462,-0.26901 2.4211,8.8773 -8.3392,5.1111 c 2.7762,14.349 16.696,77.297 18.562,84.199 z" />
      <path
         id="path8065"
         fill="url(#radialGradient7859)"
         d="m 143.22,489.41 69.583,-28.63 -36.125,-103.23 -59.352,45.141 z"
         style="fill:url(#radialGradient7859)" />
      <path
         id="path8067"
         d="m 149.2,296.3 22.256,65.228 -46.474,35.753 -17.144,-61.583 z"
         fill="url(#radialGradient7861)"
         style="fill:url(#radialGradient7861)" />
      <path
         id="path8069"
         style="color:#000000;text-indent:0;text-transform:none;fill:url(#linearGradient7863)"
         d="m 559.09,160.57 -0.9688,0.25 26.062,98.875 0.9687,-0.25 -26.062,-98.875 z"
         transform="matrix(1.0535,-0.079525,0.079525,1.0535,-424.25,233.63)"
         filter="url(#filter6867)"
         fill="url(#linearGradient7863)" />
      <path
         id="path8071"
         fill="url(#linearGradient7865)"
         d="m 149.14,295.5 72.216,6.2373 20.958,54.94 -65.229,0.5637 -6.3998,4.7498 z"
         style="fill:url(#linearGradient7865)" />
      <path
         id="path8073"
         fill="url(#radialGradient7867)"
         d="m 115.37,328.73 28.363,-27.534 -12.057,-34.107 -25.389,29.227 z"
         style="fill:url(#radialGradient7867)" />
      <path
         id="path8075"
         fill="url(#linearGradient7869)"
         d="m 143.9,301.72 5.5555,-5.692 42.413,3.0685 -9.7053,-26.628 -50.267,-5.1831 z"
         style="fill:url(#linearGradient7869)" />
      <path
         id="path8077"
         style="color:#000000;text-indent:0;text-transform:none;fill:url(#linearGradient7871)"
         d="m 537.28,99.635 -0.9687,0.25 16.418,63.78 0.6998,-0.51901 z"
         transform="matrix(1.0535,-0.079525,0.079525,1.0535,-424.25,233.63)"
         filter="url(#filter6885)"
         fill="url(#linearGradient7871)" />
      <path
         id="path8079"
         style="color:#000000;text-indent:0;text-transform:none;fill:url(#linearGradient7873)"
         d="m 523.07,71.449 -1.1393,-0.18951 9.125,33.625 0.9687,-0.95377 z"
         transform="matrix(1.0535,-0.079525,0.079525,1.0535,-424.25,233.63)"
         filter="url(#filter6895)"
         fill="url(#linearGradient7873)" />
      <path
         id="path8081"
         style="color:#000000;text-indent:0;text-transform:none"
         d="m 558.58,159.53 -59.305,38.531 0.1277,0.97825 58.969,-38.127 z"
         transform="matrix(1.0535,-0.079525,0.079525,1.0535,-424.25,233.63)"
         filter="url(#filter6909)"
         fill="#a6926f" />
      <path
         id="path8083"
         stroke="url(#linearGradient7877)"
         stroke-width="1.0565"
         fill="url(#linearGradient7875)"
         d="m 127.46,495.55 45.28,-19.541 26.829,-7.6681 80.79,-18.997 -2.0416,4.9908 -42.376,15.291 z"
         style="fill:url(#linearGradient7875);stroke:url(#linearGradient7877)" />
      <path
         id="path8085"
         fill="#9e0c0c"
         d="m 109.99,246.21 17.707,-3.9683 c 0.88274,-0.19739 1.8198,0.34967 2.0976,1.2104 l 2.0111,6.2312 c 0.2778,0.86078 -0.21043,1.7069 -1.0947,1.897 l -20.297,4.3654 c -0.88427,0.19019 -2.0112,-0.31011 -2.0976,-1.2105 0,0 -1.0855,-1.9028 -1.1984,-3.0003 -0.11293,-1.0974 0.59001,-3.3368 0.59001,-3.3368 0.17625,-0.99681 1.3993,-1.9904 2.2819,-2.1882 z" />
      <g
         id="g8087"
         transform="matrix(1.1571,-0.16592,0.16592,1.1571,-1064.2,888.46)">
        <path
           id="path8089"
           fill="#1f1f1f"
           d="m 1034.1,-239.71 c -5.2946,-0.033 -8.5919,-0.15009 -14.226,0.75 -9.6078,0.31597 -16.28,16.692 -15.734,36.06 0.5467,19.368 8.7672,34.816 18.375,34.5 7.1968,-0.25121 8.3228,-0.65693 13.688,-0.75 9.6078,-0.31597 16.953,-16.288 16.406,-35.656 -0.5467,-19.368 -8.9017,-35.219 -18.51,-34.904 z" />
        <path
           id="path8091"
           transform="matrix(1.6167,-0.053169,0.047174,1.6713,-879.18,202.08)"
           fill="url(#linearGradient7841)"
           d="m 1191.2,-204.98 c 0,11.588 -4.8176,20.983 -10.76,20.983 -5.9428,0 -10.76,-9.3942 -10.76,-20.983 0,-11.588 4.8175,-20.983 10.76,-20.983 5.9427,0 10.76,9.3942 10.76,20.983 z"
           style="fill:url(#linearGradient2)" />
        <path
           id="path8093"
           d="m 1191.2,-204.98 c 0,11.588 -4.8176,20.983 -10.76,20.983 -5.9428,0 -10.76,-9.3942 -10.76,-20.983 0,-11.588 4.8175,-20.983 10.76,-20.983 5.9427,0 10.76,9.3942 10.76,20.983 z"
           transform="matrix(0.9998,-0.019962,0.019962,0.9998,-157.2,25.261)"
           filter="url(#filter7580)"
           stroke="url(#linearGradient7881)"
           stroke-width="2.0622"
           fill="none"
           style="stroke:url(#linearGradient7881)" />
        <path
           id="path8095"
           stroke="url(#linearGradient7883)"
           transform="matrix(0.9998,-0.019962,0.019962,0.9998,-157.74,26.468)"
           fill="#8a9090"
           d="m 1191.2,-204.98 c 0,11.588 -4.8176,20.983 -10.76,20.983 -5.9428,0 -10.76,-9.3942 -10.76,-20.983 0,-11.588 4.8175,-20.983 10.76,-20.983 5.9427,0 10.76,9.3942 10.76,20.983 z"
           style="stroke:url(#linearGradient7883)" />
        <path
           id="path8097"
           filter="url(#filter7717)"
           fill="url(#radialGradient7885)"
           d="m 1022.1,-221.47 c -3.4767,1.8441 -6.0938,9.134 -6.0938,17.844 0,10.103 3.5041,18.281 7.8126,18.281 0.5053,0 0.9901,-0.12853 1.4687,-0.34375 2.422,-3.8914 3.9147,-9.8763 3.7813,-16.562 -0.174,-8.7149 -3.0263,-16.127 -6.9688,-19.219 z"
           style="fill:url(#radialGradient7885)" />
        <path
           id="path8099"
           opacity="0.61873"
           filter="url(#filter7607)"
           fill="url(#linearGradient7887)"
           d="m 1016.1,-201.72 -8.3125,0.40625 c 0.9079,10.246 5.5462,20.078 11,19.969 2.0964,-0.0419 4.0426,-1.2571 5.6562,-3.3125 0,0 -0.288,-0.28001 -0.75,-0.71875 -2.2781,-0.12548 -4.3233,-2.5228 -5.7187,-6.2812 -0.022,-0.0434 -0.041,-0.0793 -0.062,-0.125 -0.2863,-0.61118 -0.5025,-1.4422 -0.6875,-2.3438 -0.5905,-2.2608 -1.0026,-4.8253 -1.125,-7.5938 z"
           style="fill:url(#linearGradient7887)" />
        <path
           id="path8101"
           filter="url(#filter7633)"
           transform="translate(-4.1848,-68.478)"
           fill="url(#radialGradient7889)"
           d="m 1031.7,-135.16 c 0,4.0971 -1.7884,7.4185 -3.9946,7.4185 -2.2061,0 -3.9945,-3.3214 -3.9945,-7.4185 0,-4.0971 1.7884,-7.4185 3.9945,-7.4185 2.2062,0 3.9946,3.3214 3.9946,7.4185 z"
           style="fill:url(#radialGradient7889)" />
        <path
           id="path8103"
           filter="url(#filter7633)"
           transform="matrix(0.56814,0,0,0.56814,437.88,-126.64)"
           fill="url(#linearGradient7891)"
           d="m 1031.7,-135.16 c 0,4.0971 -1.7884,7.4185 -3.9946,7.4185 -2.2061,0 -3.9945,-3.3214 -3.9945,-7.4185 0,-4.0971 1.7884,-7.4185 3.9945,-7.4185 2.2062,0 3.9946,3.3214 3.9946,7.4185 z"
           style="fill:url(#linearGradient7891)" />
        <path
           id="path8105"
           filter="url(#filter7633)"
           fill="#666666"
           d="m 1022.6,-207.66 c -0.1566,0 -0.321,0.0376 -0.4687,0.0937 1.0223,0.40987 1.7812,2.1039 1.7812,4.125 0,2.0202 -0.7597,3.7141 -1.7812,4.125 0.1477,0.0561 0.3121,0.0937 0.4687,0.0937 1.2534,0 2.2813,-1.891 2.2813,-4.2188 0,-2.3278 -1.0279,-4.2188 -2.2813,-4.2188 z" />
      </g>
    </g>
  </g>
  <metadata
     id="metadata1">
    <rdf:RDF>
      <cc:Work>
        <dc:format>image/svg+xml</dc:format>
        <dc:type
           rdf:resource="http://purl.org/dc/dcmitype/StillImage" />
        <cc:license
           rdf:resource="http://creativecommons.org/publicdomain/zero/1.0/" />
        <dc:publisher>
          <cc:Agent
             rdf:about="http://openclipart.org/">
            <dc:title>Openclipart</dc:title>
          </cc:Agent>
        </dc:publisher>
      </cc:Work>
      <cc:License
         rdf:about="http://creativecommons.org/licenses/publicdomain/">
        <cc:permits
           rdf:resource="http://creativecommons.org/ns#Reproduction" />
        <cc:permits
           rdf:resource="http://creativecommons.org/ns#Distribution" />
        <cc:permits
           rdf:resource="http://creativecommons.org/ns#DerivativeWorks" />
      </cc:License>
    </rdf:RDF>
  </metadata>
</svg>
