<?xml version="1.0" encoding="UTF-8" standalone="no"?>
<svg
   id="svg6974"
   viewBox="0 0 344 345"
   version="1.1"
   sodipodi:docname="logo.svg"
   inkscape:version="1.3.2 (091e20ef0f, 2023-11-25)"
   inkscape:export-filename="logo.png"
   inkscape:export-xdpi="300"
   inkscape:export-ydpi="300"
   xmlns:inkscape="http://www.inkscape.org/namespaces/inkscape"
   xmlns:sodipodi="http://sodipodi.sourceforge.net/DTD/sodipodi-0.dtd"
   xmlns:xlink="http://www.w3.org/1999/xlink"
   xmlns="http://www.w3.org/2000/svg"
   xmlns:svg="http://www.w3.org/2000/svg"
   xmlns:rdf="http://www.w3.org/1999/02/22-rdf-syntax-ns#"
   xmlns:cc="http://creativecommons.org/ns#"
   xmlns:dc="http://purl.org/dc/elements/1.1/">
  <sodipodi:namedview
     id="namedview1"
     pagecolor="#505050"
     bordercolor="#ffffff"
     borderopacity="1"
     inkscape:showpageshadow="0"
     inkscape:pageopacity="0"
     inkscape:pagecheckerboard="1"
     inkscape:deskcolor="#505050"
     inkscape:zoom="1.8569239"
     inkscape:cx="166.94276"
     inkscape:cy="138.93946"
     inkscape:window-width="2048"
     inkscape:window-height="1115"
     inkscape:window-x="0"
     inkscape:window-y="0"
     inkscape:window-maximized="1"
     inkscape:current-layer="svg6974" />
  <defs
     id="defs6976">
    <linearGradient
       id="linearGradient7562">
      <stop
         id="stop7564"
         stop-color="#fff"
         offset="0" />
      <stop
         id="stop7570"
         stop-color="#999"
         offset=".37223" />
      <stop
         id="stop7566"
         stop-color="#333"
         offset="1" />
    </linearGradient>
    <filter
       id="filter7580"
       color-interpolation-filters="sRGB"
       x="-0.083318048"
       y="-0.042725168"
       width="1.1666361"
       height="1.0854503">
      <feGaussianBlur
         id="feGaussianBlur7582"
         stdDeviation="0.31746016" />
    </filter>
    <filter
       id="filter7717"
       height="1.0817094"
       width="1.2258269"
       y="-0.040854691"
       x="-0.11291347"
       color-interpolation-filters="sRGB">
      <feGaussianBlur
         id="feGaussianBlur7719"
         stdDeviation="0.61494821" />
    </filter>
    <filter
       id="filter7607"
       color-interpolation-filters="sRGB"
       x="-0.062366095"
       y="-0.0509803"
       width="1.1247322"
       height="1.1019606">
      <feGaussianBlur
         id="feGaussianBlur7609"
         stdDeviation="0.4328259" />
    </filter>
    <filter
       id="filter7633"
       color-interpolation-filters="sRGB"
       x="-0.19920928"
       y="-0.0649267"
       width="1.3984186"
       height="1.1298534">
      <feGaussianBlur
         id="feGaussianBlur7635"
         stdDeviation="0.22826063" />
    </filter>
    <filter
       id="filter6909"
       color-interpolation-filters="sRGB"
       x="-0.019994377"
       y="-0.030012378"
       width="1.0399888"
       height="1.0600248">
      <feGaussianBlur
         id="feGaussianBlur6911"
         stdDeviation="0.4940694" />
    </filter>
    <linearGradient
       id="linearGradient6913">
      <stop
         id="stop6915"
         stop-color="#e6c487"
         offset="0" />
      <stop
         id="stop6921"
         stop-color="#ffffea"
         offset=".5" />
      <stop
         id="stop6917"
         stop-color="#e6c487"
         offset="1" />
    </linearGradient>
    <filter
       id="filter6895"
       color-interpolation-filters="sRGB"
       x="-0.025987714"
       y="-0.0078011061"
       width="1.0519754"
       height="1.0156022">
      <feGaussianBlur
         id="feGaussianBlur6897"
         stdDeviation="0.10929675" />
    </filter>
    <filter
       id="filter6885"
       color-interpolation-filters="sRGB"
       x="-0.028443466"
       y="-0.007604085"
       width="1.0568869"
       height="1.0152082">
      <feGaussianBlur
         id="feGaussianBlur6887"
         stdDeviation="0.20287065" />
    </filter>
    <linearGradient
       id="linearGradient7624">
      <stop
         id="stop7626"
         stop-color="#aa895c"
         offset="0" />
      <stop
         id="stop7628"
         stop-color="#dbb77e"
         offset="1" />
    </linearGradient>
    <filter
       id="filter6867"
       color-interpolation-filters="sRGB"
       x="-0.028002871"
       y="-0.0076361886"
       width="1.0560057"
       height="1.0152724">
      <feGaussianBlur
         id="feGaussianBlur6869"
         stdDeviation="0.3153905" />
    </filter>
    <filter
       id="filter7309"
       height="1.06194"
       width="1.211287"
       y="-0.030969999"
       x="-0.1056435"
       color-interpolation-filters="sRGB">
      <feGaussianBlur
         id="feGaussianBlur7311"
         stdDeviation="1.2670265" />
    </filter>
    <linearGradient
       id="linearGradient6942">
      <stop
         id="stop6944"
         stop-color="#fff"
         offset="0" />
      <stop
         id="stop6946"
         stop-color="#fff"
         stop-opacity="0"
         offset="1" />
    </linearGradient>
    <filter
       id="filter7502"
       height="1.2169864"
       width="1.6403969"
       y="-0.10849321"
       x="-0.32019846"
       color-interpolation-filters="sRGB">
      <feGaussianBlur
         id="feGaussianBlur7504"
         stdDeviation="1.0158392" />
    </filter>
    <filter
       id="filter6962"
       color-interpolation-filters="sRGB"
       x="-0.097837758"
       y="-0.022123045"
       width="1.1956755"
       height="1.0442461">
      <feGaussianBlur
         id="feGaussianBlur6964"
         stdDeviation="1.9262768" />
    </filter>
    <filter
       id="filter8024"
       height="1.6294566"
       width="1.1303661"
       y="-0.3147283"
       x="-0.065183059"
       color-interpolation-filters="sRGB">
      <feGaussianBlur
         id="feGaussianBlur8026"
         stdDeviation="7.045311" />
    </filter>
    <filter
       id="filter9208"
       color-interpolation-filters="sRGB"
       x="-0.039578505"
       y="-0.034510473"
       width="1.079157"
       height="1.0690209">
      <feGaussianBlur
         id="feGaussianBlur9210"
         stdDeviation="4.1424035" />
    </filter>
    <linearGradient
       id="linearGradient7839"
       x1="888.8"
       gradientUnits="userSpaceOnUse"
       y1="-58.102"
       gradientTransform="translate(-311.76 336.18)"
       x2="925.39"
       y2="221.67">
      <stop
         id="stop7998"
         stop-color="#4d4d4d"
         offset="0" />
      <stop
         id="stop8000"
         stop-color="#4d4d4d"
         stop-opacity="0"
         offset="1" />
    </linearGradient>
    <linearGradient
       id="linearGradient7841"
       x1="1187"
       gradientUnits="userSpaceOnUse"
       x2="1177"
       y1="-211.26"
       y2="-187.9">
      <stop
         id="stop7520"
         stop-color="#151515"
         offset="0" />
      <stop
         id="stop7522"
         offset="1" />
    </linearGradient>
    <linearGradient
       id="linearGradient7843"
       x1="753.76"
       gradientUnits="userSpaceOnUse"
       y1="-223.27"
       gradientTransform="matrix(1.0535 -.079525 .079525 1.0535 -707.64 617.55)"
       x2="843.29"
       y2="-229.15">
      <stop
         id="stop7289"
         stop-color="#989783"
         offset="0" />
      <stop
         id="stop7291"
         stop-color="#6f6f6c"
         offset="1" />
    </linearGradient>
    <linearGradient
       id="linearGradient7845"
       x1="772.09"
       gradientUnits="userSpaceOnUse"
       y1="-185.14"
       gradientTransform="matrix(1.0535 -.079525 .079525 1.0535 -707.64 617.55)"
       x2="785.82"
       y2="-188.9">
      <stop
         id="stop7181"
         stop-color="#71736a"
         offset="0" />
      <stop
         id="stop7183"
         stop-color="#4d4d4d"
         offset="1" />
    </linearGradient>
    <linearGradient
       id="linearGradient7847"
       x1="933.17"
       xlink:href="#linearGradient6942"
       gradientUnits="userSpaceOnUse"
       y1="-216.64"
       gradientTransform="translate(-479.72 235.66)"
       x2="1007.2"
       y2="125.79" />
    <linearGradient
       id="linearGradient7849"
       x1="933.17"
       xlink:href="#linearGradient6942"
       gradientUnits="userSpaceOnUse"
       y1="-216.64"
       gradientTransform="translate(-100.43 -83.978)"
       x2="1007.2"
       y2="125.79" />
    <linearGradient
       id="linearGradient7851"
       x1="783.69"
       gradientUnits="userSpaceOnUse"
       y1="-142.58"
       gradientTransform="matrix(1.0535 -.079525 .079525 1.0535 -707.64 617.55)"
       x2="832.39"
       y2="-82.474">
      <stop
         id="stop7032"
         stop-color="#a0a193"
         offset="0" />
      <stop
         id="stop7034"
         stop-color="#a0938d"
         offset="1" />
    </linearGradient>
    <linearGradient
       id="linearGradient7853"
       x1="959.86"
       gradientUnits="userSpaceOnUse"
       y1="-95.763"
       gradientTransform="matrix(1.0535 -.079525 .079525 1.0535 -707.64 617.55)"
       x2="798.38"
       y2="-55.412">
      <stop
         id="stop7114"
         stop-color="#5a564a"
         offset="0" />
      <stop
         id="stop7116"
         stop-color="#784421"
         offset="1" />
    </linearGradient>
    <radialGradient
       id="radialGradient7855"
       gradientUnits="userSpaceOnUse"
       cy="-110.3"
       cx="782.41"
       gradientTransform="matrix(1.6156 .89574 -1.0362 1.8689 -1268 -62.52)"
       r="43.109">
      <stop
         id="stop7132"
         stop-color="#fff"
         offset="0" />
      <stop
         id="stop7135"
         stop-color="#fff"
         stop-opacity="0"
         offset="1" />
    </radialGradient>
    <linearGradient
       id="linearGradient7857"
       x1="1394.6"
       xlink:href="#linearGradient7624"
       gradientUnits="userSpaceOnUse"
       y1="402.33"
       gradientTransform="matrix(1.0535 -.079525 .079525 1.0535 -1202.6 126.2)"
       x2="1283.9"
       y2="320.86" />
    <radialGradient
       id="radialGradient7859"
       xlink:href="#linearGradient7624"
       gradientUnits="userSpaceOnUse"
       cy="365.52"
       cx="1225"
       gradientTransform="matrix(1.9982 .97636 -.65627 1.3431 -2091.4 -1278.5)"
       r="43.489" />
    <radialGradient
       id="radialGradient7861"
       xlink:href="#linearGradient7624"
       gradientUnits="userSpaceOnUse"
       cy="297.61"
       cx="1223.1"
       gradientTransform="matrix(2.0007 .73471 -.58182 1.5843 -2164.6 -1031.5)"
       r="29.603" />
    <linearGradient
       id="linearGradient7863"
       x1="1287.6"
       xlink:href="#linearGradient6913"
       gradientUnits="userSpaceOnUse"
       y1="332.57"
       gradientTransform="translate(-727.01 -156.87)"
       x2="1310.8"
       y2="418.92" />
    <linearGradient
       id="linearGradient7865"
       x1="1331.1"
       xlink:href="#linearGradient7624"
       gradientUnits="userSpaceOnUse"
       y1="317.69"
       gradientTransform="matrix(1.0535 -.079525 .079525 1.0535 -1202.6 126.2)"
       x2="1263.7"
       y2="262.82" />
    <radialGradient
       id="radialGradient7867"
       xlink:href="#linearGradient7624"
       gradientUnits="userSpaceOnUse"
       cy="254.83"
       cx="1224.3"
       gradientTransform="matrix(1.7195 .19294 -.19080 1.7004 -1949.2 -373.12)"
       r="17.662" />
    <linearGradient
       id="linearGradient7869"
       x1="1306.1"
       xlink:href="#linearGradient7624"
       gradientUnits="userSpaceOnUse"
       y1="267.67"
       gradientTransform="matrix(1.0535 -.079525 .079525 1.0535 -1202.6 126.2)"
       x2="1258.1"
       y2="235.39" />
    <linearGradient
       id="linearGradient7871"
       x1="1262.8"
       xlink:href="#linearGradient6913"
       gradientUnits="userSpaceOnUse"
       y1="288.51"
       gradientTransform="translate(-727.01 -156.87)"
       x2="1280.9"
       y2="288.51" />
    <linearGradient
       id="linearGradient7873"
       x1="816.5"
       xlink:href="#linearGradient6913"
       gradientUnits="userSpaceOnUse"
       y1="-254.11"
       gradientTransform="translate(-294.83 342.18)"
       x2="827.12"
       y2="-254.11" />
    <linearGradient
       id="linearGradient7875"
       x1="844.83"
       gradientUnits="userSpaceOnUse"
       y1="-82.239"
       gradientTransform="matrix(1.0535 -.079525 .079525 1.0535 -707.64 617.55)"
       x2="851.94"
       y2="-41.35">
      <stop
         id="stop7157"
         stop-color="#9c9d9f"
         offset="0" />
      <stop
         id="stop7159"
         stop-color="#8a9d9f"
         offset="1" />
    </linearGradient>
    <linearGradient
       id="linearGradient7877"
       x1="844.83"
       gradientUnits="userSpaceOnUse"
       y1="-82.239"
       gradientTransform="matrix(1.0535 -.079525 .079525 1.0535 -707.64 617.55)"
       x2="851.94"
       y2="-41.35">
      <stop
         id="stop7149"
         stop-color="#fff"
         offset="0" />
      <stop
         id="stop7151"
         stop-color="#969799"
         stop-opacity="0"
         offset="1" />
    </linearGradient>
    <linearGradient
       id="linearGradient7881"
       x1="1185.4"
       xlink:href="#linearGradient7562"
       gradientUnits="userSpaceOnUse"
       x2="1183.9"
       y1="-183.13"
       y2="-218.05" />
    <linearGradient
       id="linearGradient7883"
       x1="1185.4"
       xlink:href="#linearGradient7562"
       gradientUnits="userSpaceOnUse"
       x2="1162.4"
       y1="-183.13"
       y2="-219.56" />
    <radialGradient
       id="radialGradient7885"
       gradientUnits="userSpaceOnUse"
       cy="-203.41"
       cx="1022.6"
       gradientTransform="matrix(1.5351 0 0 2.3522 -547.18 275.04)"
       r="6.5354">
      <stop
         id="stop7684"
         stop-color="#333"
         offset="0" />
      <stop
         id="stop7686"
         stop-color="#333"
         stop-opacity="0"
         offset="1" />
    </radialGradient>
    <linearGradient
       id="linearGradient7887"
       y2="-181.93"
       gradientUnits="userSpaceOnUse"
       y1="-197.53"
       x2="1023.3"
       x1="1010.2">
      <stop
         id="stop7669"
         stop-color="#5e6262"
         stop-opacity=".33166"
         offset="0" />
      <stop
         id="stop7695"
         stop-color="#484a4a"
         offset=".5" />
      <stop
         id="stop7671"
         stop-color="#333"
         offset="1" />
    </linearGradient>
    <radialGradient
       id="radialGradient7889"
       gradientUnits="userSpaceOnUse"
       cy="-135.16"
       cx="1027.7"
       gradientTransform="matrix(1 0 0 1.7538 0 101.88)"
       r="4.5424">
      <stop
         id="stop7640"
         offset="0" />
      <stop
         id="stop7642"
         stop-color="#333"
         offset="1" />
    </radialGradient>
    <linearGradient
       id="linearGradient7891"
       y2="-135.16"
       gradientUnits="userSpaceOnUse"
       y1="-135.16"
       x2="1032"
       x1="1023.4">
      <stop
         id="stop7661"
         stop-color="#666"
         offset="0" />
      <stop
         id="stop7663"
         stop-color="#999"
         offset="1" />
    </linearGradient>
  </defs>
  <g
     id="layer1"
     transform="translate(0 -707.36)">
    <g
       id="g7797"
       transform="translate(-3.5061 492.77)">
      <path
         id="path6280"
         filter="url(#filter9208)"
         fill-opacity="0.66071"
         transform="matrix(1.0535,-0.079525,0.079525,1.0535,-424.25,233.63)"
         d="m 437.14,25.062 c -1.8147,0 -3.4049,1.2815 -4.3438,3.2188 l -16.156,2.3438 c -0.8472,0.12382 -2.0752,0.97795 -2.3126,1.9062 0,0 -0.8092,2.0499 -0.7812,3.0938 0.0284,1.0439 0.9062,2.9375 0.9062,2.9375 0.0174,0.85597 1.0581,1.3978 1.9063,1.2812 l 17.16,-2.344 c 0.9413,1.2545 2.2135,2.0312 3.625,2.0312 2.1409,0 3.9705,-1.7696 4.7812,-4.3125 0.3958,-0.07789 0.7961,-0.15206 1.1875,-0.1875 1.2665,-0.1147 2.2547,0.0665 2.6875,0.3125 0.4329,0.24604 0.796,0.41146 1.0938,2.0938 0.559,3.1589 3.7824,18.395 8.4687,40.375 4.6862,21.98 10.734,50.317 16.75,78.312 5.5424,25.792 6.6841,30.953 11,50.969 l -1.0625,1.7188 10.75,52.156 -2.5938,0.21875 c -3.6914,-16.815 -12.574,-28.936 -21.594,-28.031 -5.8476,0.35622 -9.5034,0.46351 -15.656,1.875 -1.4954,0.14997 -2.8796,0.66109 -4.1874,1.4688 -8.9813,3.6805 -14.542,20.468 -12.688,39.875 2.0399,21.342 12.26,37.78 22.844,36.719 0.5736,-0.0575 1.1362,-0.18797 1.6875,-0.34375 0.1705,-0.008 0.3293,-0.0141 0.5,-0.0312 7.9266,-0.81105 9.1469,-1.3432 15.062,-1.8438 10.489,-1.0519 17.364,-18.906 15.5,-40 l 3.125,-0.25 3.625,17.594 -0.875,0.3125 86.469,-13.906 c 4.3991,9.1462 10.594,14.758 16.906,14.125 0.5736,-0.0575 1.1362,-0.18797 1.6875,-0.34375 0.1705,-0.008 0.3293,-0.0141 0.5,-0.0312 7.9266,-0.81106 9.1469,-1.3432 15.062,-1.8438 7.5766,-0.75981 13.245,-10.315 15.125,-23.5 l 9.5625,-2.6562 1.9375,-3.875 h 0.0312 l 18.938,-6.6562 0.8437,-0.125 -0.0625,-0.15625 0.1875,-0.0625 h -0.1875 l -24.688,-82.625 -24.094,-1.5 -15.781,-53.094 -33.875,-5.5312 6.2187,0.9375 -7.25,-25.812 -21.656,-3.9062 c -2.138,-10.702 -3.8061,-19.153 -4.0312,-20.5 -0.6277,-3.755 -2.629,-6.8474 -5.2188,-8.4062 -1.9422,-1.1692 -3.929,-1.5402 -5.7812,-1.5625 -0.6175,-0.007 -1.2374,0.0072 -1.8126,0.0625 -0.8495,0.08158 -1.6013,0.20591 -2.3124,0.34375 -1.4623,-1.7569 -3.4113,-2.6207 -5.1876,-2.0625 -1.4721,0.46266 -2.5271,1.8279 -3.0312,3.5938 -0.0765,-1.15e-4 -0.173,-0.01122 -0.25,0 l -16.969,2.5 c -0.847,0.12381 -2.0751,0.97795 -2.3124,1.9062 -1e-4,0 -0.8406,2.0499 -0.8126,3.0938 0.0283,1.0439 0.9376,2.9375 0.9376,2.9375 0.0174,0.85597 1.0268,1.3978 1.875,1.2812 l 19.469,-2.6875 c 1.4631,1.7629 3.4395,2.6217 5.2187,2.0625 1.5668,-0.49237 2.6659,-1.9713 3.125,-3.9062 0.3409,-0.06646 0.6637,-0.12395 1,-0.15625 1.2665,-0.12163 2.2547,0.08316 2.6876,0.34375 0.4329,0.26057 0.7958,0.43677 1.0937,2.2188 0.3025,1.8098 1.6577,8.7159 3.375,17.344 l -15.938,-2.875 -0.0312,-0.0625 -0.6876,-0.125 -0.0312,-0.125 -0.125,0.125 -0.2812,-0.0625 0.0624,0.28125 -25.719,25.438 3.4063,16.875 -23.031,-0.0937 c -2.9023,-13.531 -6.1252,-28.549 -8.5,-39.688 -4.6845,-21.972 -8.0714,-38.025 -8.4375,-40.094 -0.6273,-3.5449 -2.6292,-6.4656 -5.2188,-7.9375 -2.5896,-1.4718 -5.2929,-1.6146 -7.5937,-1.4062 -0.6596,0.05974 -1.2514,0.14615 -1.7813,0.21875 -0.9184,-1.1009 -2.1258,-1.7812 -3.4374,-1.7812 z m 89.281,81.438 0.0625,0.21875 -11.25,9.2188 h -0.0937 l 11.281,-9.4375 z m -30.156,14.969 1.7187,8.5625 -7.5937,6.2188 9.7187,48.75 -3.625,0.25 -7,11.406 c -3.8825,-18.039 -4.4935,-20.906 -9.0937,-42.312 -2.4976,-11.622 -4.5533,-21.244 -6.9688,-32.5 l 22.844,-0.375 z m 57.969,40.031 6.4375,0.4375 -6.4688,-0.40625 0.0313,-0.0312 z"
         style="display:none" />
      <path
         id="path8029"
         opacity="0.50167"
         d="M 433.33,308.02 608.25,277 l 64.332,9.8689 20.152,13.651 -94.583,30.205 -91.602,-0.18461 z"
         transform="matrix(1.0535,-0.079525,0.079525,1.0535,-424.25,233.63)"
         filter="url(#filter8024)"
         fill="url(#linearGradient7839)"
         style="display:none" />
      <path
         id="path8031"
         d="m 116.18,467.58 -0.81651,10.541 121.11,-18.816 1.497,-12.205 z"
         fill="#333333"
         style="display:inline" />
      <g
         id="g8033"
         transform="matrix(1.0535 -.079525 .079525 1.0535 -866.98 557.03)">
        <path
           id="path8035"
           fill="#1f1f1f"
           d="m1056.1-66.906c-5.8476 0.35622-9.4965 0.47149-15.649 1.883-10.583 1.0614-16.736 19.635-14.696 40.976 2.04 21.342 12.261 37.786 22.844 36.725 7.9266-0.81106 9.1396-1.3425 15.055-1.8431 10.584-1.0614 17.508-19.239 15.468-40.581-2.0399-21.342-12.439-38.222-23.023-37.16z" />
        <path
           id="path8037"
           transform="matrix(1.7809 -.17860 .17603 1.8416 -1023.4 562.71)"
           fill="url(#linearGradient7841)"
           d="m1191.2-204.98c0 11.588-4.8176 20.983-10.76 20.983-5.9428 0-10.76-9.3942-10.76-20.983 0-11.588 4.8175-20.983 10.76-20.983 5.9427 0 10.76 9.3942 10.76 20.983z" />
      </g>
      <path
         id="path8039"
         fill="url(#linearGradient7843)"
         d="m83.97 315.79-2.7457 6.7996 83.776-7.7576-2.891-4.6641z" />
      <path
         id="path8041"
         fill="#9e0c0c"
         d="m21.733 230.3 17.707-3.9683c0.88275-0.19739 1.8198 0.34967 2.0976 1.2104l2.0111 6.2312c0.27781 0.86078-0.21042 1.7069-1.0947 1.8971l-20.297 4.3654c-0.88429 0.19019-2.0112-0.3101-2.0976-1.2105 0 0-1.0855-1.9028-1.1984-3.0003-0.11283-1.0974 0.59001-3.3368 0.59001-3.3368 0.17626-0.99681 1.3993-1.9904 2.2819-2.1882z"
         style="fill:#5a9fd4;fill-opacity:1" />
      <path
         id="path8043"
         transform="matrix(.80517 -.060781 .079525 1.0535 -458.96 569.35)"
         fill="#9e0c0c"
         d="m658.91-284.1c0 3.992-3.0659 7.2282-6.8478 7.2282s-6.8478-3.2362-6.8478-7.2282 3.0659-7.2282 6.8478-7.2282c3.782 0 6.8478 3.2362 6.8478 7.2282z"
         style="fill:#5a9fd4;fill-opacity:1" />
      <path
         id="path8045"
         style="block-progression:tb;color:#000000;text-transform:none;text-indent:0"
         fill="url(#linearGradient7845)"
         d="m48.499 224.04c-4.8147 0.805-6.1197 1.769-6.1197 1.769s-1.4975 2.1729-0.53072 4.9468c0.9668 2.7739 2.5354 4.1234 2.5354 4.1234s2.9232-1.5999 5.5736-2.0431c1.3251-0.22155 2.3804-0.10924 2.856 0.11549 0.47561 0.22477 0.87139 0.37015 1.3188 2.1187 0.84021 3.2834 5.4476 19.078 12.132 41.86 6.6848 22.783 15.309 52.154 23.873 81.168 17.128 58.028 33.919 114.68 33.919 114.68l8.5495-2.5326s-16.759-56.656-33.886-114.68c-8.5634-29.012-17.222-58.358-23.904-81.133-6.6823-22.774-11.527-39.417-12.077-41.567-0.94275-3.6846-3.2839-6.6023-6.129-7.9469s-5.7043-1.28-8.1116-0.87756z" />
      <path
         id="path8047"
         filter="url(#filter6962)"
         transform="matrix(1.0535 -.079525 .079525 1.0535 -424.25 233.63)"
         fill="url(#linearGradient7847)"
         d="m454.64 32.476c-1.3206 0.22367-0.028 4.9951 0.3885 4.0095l43.222 191.42 3.0625 13.531-0.875-4.1875-42.912-201.86s-1.5653-3.1353-2.8859-2.9116z" />
      <path
         id="path8049"
         transform="matrix(.75360 -.30086 .38040 1.0472 -249.72 739.46)"
         fill="#9e0c0c"
         d="m658.91-284.1c0 3.992-3.0659 7.2282-6.8478 7.2282s-6.8478-3.2362-6.8478-7.2282 3.0659-7.2282 6.8478-7.2282c3.782 0 6.8478 3.2362 6.8478 7.2282z"
         style="fill:#ffd43b;fill-opacity:1" />
      <path
         id="path8051"
         style="block-progression:tb;color:#000000;text-transform:none;text-indent:0"
         fill="#71736a"
         d="m140.81 239.18c-0.65097 0.0417-1.3026 0.11009-1.9041 0.21409-4.8127 0.83147-7.4655 2.6252-7.4655 2.6252s-0.95461 2.4137 0.3811 5.4148c1.3356 3.001 3.0172 3.4202 3.0172 3.4202s2.9169-1.6815 5.5662-2.1392c1.3246-0.22885 2.3808-0.10535 2.8575 0.13475 0.47679 0.24008 0.87326 0.39578 1.3288 2.2494 0.52725 2.1458 2.8579 10.582 5.8911 21.439l9.0861-0.68673c-3.3843-12.102-6.0118-21.565-6.3772-23.051-0.95978-3.9059-3.3149-7.0058-6.1672-8.442-2.139-1.0772-4.261-1.3025-6.2141-1.1787z" />
      <path
         id="path8053"
         filter="url(#filter7502)"
         transform="matrix(1.0535 -.079620 .084329 1.1159 -706.3 634.07)"
         fill="url(#linearGradient7849)"
         d="m834.18-287.18c-0.084-0.0107-0.1675 0.0173-0.25 0.0312-1.3206 0.22367-0.042 4.9856 0.375 4l4.1563 18.438h2.5l-4.1563-19.531s-1.3649-2.7773-2.625-2.9375z" />
      <path
         id="path8055"
         fill="url(#linearGradient7851)"
         d="m128.42 495.25 69.383-28.16-5.4708-90.702-74.181 10.437-13.354 25.998z" />
      <path
         id="path8057"
         d="m175.52 476.79 104.58-26.705 20.415-8.9512-93.348 9.3267z"
         fill="url(#linearGradient7853)" />
      <path
         id="path8059"
         stroke="url(#radialGradient7855)"
         stroke-width="1.0565"
         fill="none"
         d="m128.42 495.25 69.383-28.16-5.4708-90.702-74.181 10.437-13.354 25.998z" />
      <path
         id="path8061"
         fill="url(#linearGradient7857)"
         d="m176.6 357.25 36.277 103.33 87.498-19.194-32.661-85.317z" />
      <path
         id="path8063"
         filter="url(#filter7309)"
         transform="matrix(1.0535 -.079525 .079525 1.0535 -424.25 233.63)"
         fill="#333"
         d="m515.96 281.92 10.222-2.6901-17.755-80.164 7.5322-2.1521-3.4971-12.912-9.1462-0.26901 2.4211 8.8773-8.3392 5.1111c2.7762 14.349 16.696 77.297 18.562 84.199z" />
      <path
         id="path8065"
         fill="url(#radialGradient7859)"
         d="m143.22 489.41 69.583-28.63-36.125-103.23-59.352 45.141z" />
      <path
         id="path8067"
         d="m149.2 296.3 22.256 65.228-46.474 35.753-17.144-61.583z"
         fill="url(#radialGradient7861)" />
      <path
         id="path8069"
         style="block-progression:tb;color:#000000;text-transform:none;text-indent:0"
         d="m559.09 160.57-0.9688 0.25 26.062 98.875 0.9687-0.25-26.062-98.875z"
         transform="matrix(1.0535 -.079525 .079525 1.0535 -424.25 233.63)"
         filter="url(#filter6867)"
         fill="url(#linearGradient7863)" />
      <path
         id="path8071"
         fill="url(#linearGradient7865)"
         d="m149.14 295.5 72.216 6.2373 20.958 54.94-65.229 0.5637-6.3998 4.7498z" />
      <path
         id="path8073"
         fill="url(#radialGradient7867)"
         d="m115.37 328.73 28.363-27.534-12.057-34.107-25.389 29.227z" />
      <path
         id="path8075"
         fill="url(#linearGradient7869)"
         d="m143.9 301.72 5.5555-5.692 42.413 3.0685-9.7053-26.628-50.267-5.1831z" />
      <path
         id="path8077"
         style="block-progression:tb;color:#000000;text-transform:none;text-indent:0"
         d="m537.28 99.635-0.9687 0.25 16.418 63.78 0.6998-0.51901z"
         transform="matrix(1.0535 -.079525 .079525 1.0535 -424.25 233.63)"
         filter="url(#filter6885)"
         fill="url(#linearGradient7871)" />
      <path
         id="path8079"
         style="block-progression:tb;color:#000000;text-transform:none;text-indent:0"
         d="m523.07 71.449-1.1393-0.18951 9.125 33.625 0.9687-0.95377z"
         transform="matrix(1.0535 -.079525 .079525 1.0535 -424.25 233.63)"
         filter="url(#filter6895)"
         fill="url(#linearGradient7873)" />
      <path
         id="path8081"
         style="block-progression:tb;color:#000000;text-transform:none;text-indent:0"
         d="m558.58 159.53-59.305 38.531 0.1277 0.97825 58.969-38.127z"
         transform="matrix(1.0535 -.079525 .079525 1.0535 -424.25 233.63)"
         filter="url(#filter6909)"
         fill="#a6926f" />
      <path
         id="path8083"
         stroke="url(#linearGradient7877)"
         stroke-width="1.0565"
         fill="url(#linearGradient7875)"
         d="m127.46 495.55 45.28-19.541 26.829-7.6681 80.79-18.997-2.0416 4.9908-42.376 15.291z" />
      <path
         id="path8085"
         fill="#9e0c0c"
         d="m109.99 246.21 17.707-3.9683c0.88274-0.19739 1.8198 0.34967 2.0976 1.2104l2.0111 6.2312c0.2778 0.86078-0.21043 1.7069-1.0947 1.897l-20.297 4.3654c-0.88427 0.19019-2.0112-0.31011-2.0976-1.2105 0 0-1.0855-1.9028-1.1984-3.0003-0.11293-1.0974 0.59001-3.3368 0.59001-3.3368 0.17625-0.99681 1.3993-1.9904 2.2819-2.1882z"
         style="fill:#ffd43b;fill-opacity:1" />
      <g
         id="g8087"
         transform="matrix(1.1571 -.16592 .16592 1.1571 -1064.2 888.46)">
        <path
           id="path8089"
           fill="#1f1f1f"
           d="m1034.1-239.71c-5.2946-0.033-8.5919-0.15009-14.226 0.75-9.6078 0.31597-16.28 16.692-15.734 36.06 0.5467 19.368 8.7672 34.816 18.375 34.5 7.1968-0.25121 8.3228-0.65693 13.688-0.75 9.6078-0.31597 16.953-16.288 16.406-35.656-0.5467-19.368-8.9017-35.219-18.51-34.904z" />
        <path
           id="path8091"
           transform="matrix(1.6167 -.053169 .047174 1.6713 -879.18 202.08)"
           fill="url(#linearGradient7841)"
           d="m1191.2-204.98c0 11.588-4.8176 20.983-10.76 20.983-5.9428 0-10.76-9.3942-10.76-20.983 0-11.588 4.8175-20.983 10.76-20.983 5.9427 0 10.76 9.3942 10.76 20.983z" />
        <path
           id="path8093"
           d="m1191.2-204.98c0 11.588-4.8176 20.983-10.76 20.983-5.9428 0-10.76-9.3942-10.76-20.983 0-11.588 4.8175-20.983 10.76-20.983 5.9427 0 10.76 9.3942 10.76 20.983z"
           transform="matrix(.99980 -.019962 .019962 .99980 -157.2 25.261)"
           filter="url(#filter7580)"
           stroke="url(#linearGradient7881)"
           stroke-width="2.0622"
           fill="none" />
        <path
           id="path8095"
           stroke="url(#linearGradient7883)"
           transform="matrix(.99980 -.019962 .019962 .99980 -157.74 26.468)"
           fill="#8a9090"
           d="m1191.2-204.98c0 11.588-4.8176 20.983-10.76 20.983-5.9428 0-10.76-9.3942-10.76-20.983 0-11.588 4.8175-20.983 10.76-20.983 5.9427 0 10.76 9.3942 10.76 20.983z" />
        <path
           id="path8097"
           filter="url(#filter7717)"
           fill="url(#radialGradient7885)"
           d="m1022.1-221.47c-3.4767 1.8441-6.0938 9.134-6.0938 17.844 0 10.103 3.5041 18.281 7.8126 18.281 0.5053 0 0.9901-0.12853 1.4687-0.34375 2.422-3.8914 3.9147-9.8763 3.7813-16.562-0.174-8.7149-3.0263-16.127-6.9688-19.219z" />
        <path
           id="path8099"
           opacity=".61873"
           filter="url(#filter7607)"
           fill="url(#linearGradient7887)"
           d="m1016.1-201.72-8.3125 0.40625c0.9079 10.246 5.5462 20.078 11 19.969 2.0964-0.0419 4.0426-1.2571 5.6562-3.3125 0 0-0.288-0.28001-0.75-0.71875-2.2781-0.12548-4.3233-2.5228-5.7187-6.2812-0.022-0.0434-0.041-0.0793-0.062-0.125-0.2863-0.61118-0.5025-1.4422-0.6875-2.3438-0.5905-2.2608-1.0026-4.8253-1.125-7.5938z" />
        <path
           id="path8101"
           filter="url(#filter7633)"
           transform="translate(-4.1848 -68.478)"
           fill="url(#radialGradient7889)"
           d="m1031.7-135.16c0 4.0971-1.7884 7.4185-3.9946 7.4185-2.2061 0-3.9945-3.3214-3.9945-7.4185s1.7884-7.4185 3.9945-7.4185c2.2062 0 3.9946 3.3214 3.9946 7.4185z" />
        <path
           id="path8103"
           filter="url(#filter7633)"
           transform="matrix(.56814 0 0 .56814 437.88 -126.64)"
           fill="url(#linearGradient7891)"
           d="m1031.7-135.16c0 4.0971-1.7884 7.4185-3.9946 7.4185-2.2061 0-3.9945-3.3214-3.9945-7.4185s1.7884-7.4185 3.9945-7.4185c2.2062 0 3.9946 3.3214 3.9946 7.4185z" />
        <path
           id="path8105"
           filter="url(#filter7633)"
           fill="#666"
           d="m1022.6-207.66c-0.1566 0-0.321 0.0376-0.4687 0.0937 1.0223 0.40987 1.7812 2.1039 1.7812 4.125 0 2.0202-0.7597 3.7141-1.7812 4.125 0.1477 0.0561 0.3121 0.0937 0.4687 0.0937 1.2534 0 2.2813-1.891 2.2813-4.2188s-1.0279-4.2188-2.2813-4.2188z" />
      </g>
    </g>
  </g>
  <metadata
     id="metadata1">
    <rdf:RDF>
      <cc:Work>
        <dc:format>image/svg+xml</dc:format>
        <dc:type
           rdf:resource="http://purl.org/dc/dcmitype/StillImage" />
        <cc:license
           rdf:resource="http://creativecommons.org/licenses/publicdomain/" />
        <dc:publisher>
          <cc:Agent
             rdf:about="http://openclipart.org/">
            <dc:title>Openclipart</dc:title>
          </cc:Agent>
        </dc:publisher>
      </cc:Work>
      <cc:License
         rdf:about="http://creativecommons.org/licenses/publicdomain/">
        <cc:permits
           rdf:resource="http://creativecommons.org/ns#Reproduction" />
        <cc:permits
           rdf:resource="http://creativecommons.org/ns#Distribution" />
        <cc:permits
           rdf:resource="http://creativecommons.org/ns#DerivativeWorks" />
      </cc:License>
    </rdf:RDF>
  </metadata>
</svg>
